<svg xmlns="http://www.w3.org/2000/svg" viewBox="0 0 486 264"><defs><style>.a{fill:#070001;opacity:0.1;isolation:isolate;}.b{fill:#f1f4f6;}.c{fill:#205695;}.d,.m{fill:none;stroke-miterlimit:10;stroke-width:0.27px;}.d{stroke:#1b5086;}.e{fill:#90969e;}.f{fill:#b7bcc4;}.g{fill:#151515;}.h{fill:#040000;}.i{fill:#82c6af;}.j{fill:#d6ebe4;}.k{fill:#aad8c9;}.l{fill:#67a487;}.m{stroke:#4a8969;}.n{fill:#dceee2;}.o{fill:#005358;}.p{fill:#4e9d9b;}.q{fill:#6cb8b2;}.r{fill:#8ccdc5;}.s{fill:#509f9d;}.t{fill:#105453;}.u{fill:#56a3a1;}.v{fill:#308385;}.w{fill:#1f5c5b;}.x{fill:#d3e2e2;}.y{fill:#025459;}.z{fill:#deebea;}.aa{fill:#4aae8d;}.ab{fill:#73c2a7;}.ac{fill:#4c90c1;}.ad{fill:#90b8d8;}.ae{fill:#75c3a9;}.af{fill:#bbdfd1;}</style></defs><title>aqzx_img</title><ellipse class="a" cx="249.38" cy="247.1" rx="236.62" ry="16.9"/><path class="b" d="M314,90.38c-4-.5-6.78-3.41-6.54-6.73q.15-2.06.15-4.14C307.61,41,270,9.72,223.52,9.72S139.43,41,139.43,79.51v.1c0,5.54-4.65,10.34-11.17,11.49C89,98,59.83,127.59,61.72,162.57,63.55,196.62,99.57,227,140.57,229a101.55,101.55,0,0,0,25.1-1.85,293.06,293.06,0,0,1,115.71,0A101.35,101.35,0,0,0,306.46,229c42.78-2.11,77.09-31.15,78.88-66.68C387.15,126.06,355.57,95.6,314,90.38Z" transform="translate(25.86 12.62)"/><path class="a" d="M72.61,157.25c-4.84-2.5-11.14.48-10.9,5.2v.12C63.55,196.62,99.57,227,140.57,229a101.47,101.47,0,0,0,24.33-1.7,309.43,309.43,0,0,1,117.27,0A101.62,101.62,0,0,0,306.46,229c42.78-2.11,77.09-31.15,78.88-66.68,0-.44,0-.88,0-1.32C244.57,229,123.55,183.62,72.61,157.25Z" transform="translate(25.86 12.62)"/><path class="c" d="M205.7-3.38l.72-2.91a36.92,36.92,0,0,0-2.83-3.15l-.71,1.14.37-1.49c-1.25-1.22-2.16-2-2.16-2a36.3,36.3,0,0,0-.67,11.45l3,2.37-2.77-1a14.41,14.41,0,0,0,.5,1.85c2.08,6.11,5.74,10.37,8.19,9.53S212.06,6,210-.15a20,20,0,0,0-3-5.36Z" transform="translate(25.86 12.62)"/><path class="d" d="M201-11.6s4.58,19.23,6.62,20.51" transform="translate(25.86 12.62)"/><polygon class="e" points="228.47 32.95 230.44 31.61 234.59 37.85 232.62 39.18 228.47 32.95"/><polygon class="f" points="230.44 31.61 232.62 39.18 234.59 37.85 230.44 31.61"/><polygon class="e" points="234.53 40.66 234.1 38.3 243.93 36.47 244.36 38.82 234.53 40.66"/><ellipse class="g" cx="229.22" cy="32" rx="2.38" ry="2.4"/><polygon class="f" points="235.64 38.01 244.36 38.82 235.62 40.46 235.64 38.01"/><ellipse class="g" cx="234.32" cy="39.47" rx="2.38" ry="2.4"/><path class="h" d="M217,21.09l.54-.1h0l1.37,7.57h0l-.54.1a.63.63,0,0,1-.73-.51l-1.15-6.32A.64.64,0,0,1,217,21.09Z" transform="translate(25.86 12.62)"/><path class="g" d="M217.93,19.56l.55-.1h0l1.85,10.21h0l-.55.11a.64.64,0,0,1-.73-.51l-1.62-9a.62.62,0,0,1,.5-.74Z" transform="translate(25.86 12.62)"/><path class="i" d="M190.22,12.9l22.71-4.19a.75.75,0,0,1,.87.61L215,16.19a.75.75,0,0,1-.6.88l-22.7,4.19a.77.77,0,0,1-.88-.61l-1.24-6.87A.75.75,0,0,1,190.22,12.9Z" transform="translate(25.86 12.62)"/><path class="g" d="M187.88,13.61l1.65-.3h0l1.17,6.46h0l-1,.18a.71.71,0,0,1-.82-.57h0l-1-5.77Z" transform="translate(25.86 12.62)"/><path class="j" d="M215.71,10a42.43,42.43,0,0,1-1.06-5.13,2.14,2.14,0,0,0-1.56-.31L189.54,8.86a1.23,1.23,0,0,1,.14.68c-.05.55-.11,1.1-.19,1.64a4.28,4.28,0,0,0,.25,1.18,1.25,1.25,0,0,1-.15,1.24c.16.93.34,1.86.48,2.78a3.39,3.39,0,0,0,2.08.27l8.61-1.59a3.43,3.43,0,0,1,2.58.57l.4.28a3.39,3.39,0,0,0,2.59.56l8.48-1.56-.16-.88-.05-.26,0-.08v0a1.32,1.32,0,0,1,.59-1.69.89.89,0,0,1,.38-.12L215.4,11A1.24,1.24,0,0,1,215.71,10Z" transform="translate(25.86 12.62)"/><path class="k" d="M183,10.76l6.41,4.46a3.43,3.43,0,0,0,2.58.57l8.61-1.59a3.46,3.46,0,0,1,2.59.56l.39.28a3.46,3.46,0,0,0,2.59.57l8.66-1.6a2.23,2.23,0,0,0,1.78-2.59l-1.09-6A2.21,2.21,0,0,0,213,3.63L183.36,9.09a.92.92,0,0,0-.74,1.07A1,1,0,0,0,183,10.76Z" transform="translate(25.86 12.62)"/><path class="j" d="M187.49,8.33l12.27-2.26a.93.93,0,0,1,1.09.76l.37,2a1,1,0,0,1-.76,1.11L188.2,12.21a1,1,0,0,1-1.1-.76l-.36-2A.94.94,0,0,1,187.49,8.33Z" transform="translate(25.86 12.62)"/><path class="j" d="M204.49,5.19,212,3.81a1,1,0,0,1,1.1.77l.36,2a.94.94,0,0,1-.75,1.1L205.2,9.07a.94.94,0,0,1-1.1-.76l-.36-2A1,1,0,0,1,204.49,5.19Z" transform="translate(25.86 12.62)"/><path class="l" d="M215.42-3.07l2.19-2A40,40,0,0,0,217-9.31l-1.22.56,1.12-1c-.38-1.71-.73-2.83-.73-2.83a36.17,36.17,0,0,0-6.79,9.2L210.56.22l-1.78-2.38a16.78,16.78,0,0,0-.59,1.82c-1.58,6.25-.85,11.85,1.66,12.49s5.8-3.91,7.38-10.16a20.46,20.46,0,0,0,.45-6.11Z" transform="translate(25.86 12.62)"/><path class="m" d="M209.91,12.22a66.4,66.4,0,0,1,6.19-24.63" transform="translate(25.86 12.62)"/><polygon class="e" points="270.03 50.49 268.06 49.16 263.91 55.39 265.88 56.73 270.03 50.49"/><polygon class="f" points="268.06 49.16 265.88 56.73 263.91 55.39 268.06 49.16"/><polygon class="e" points="263.97 58.2 264.4 55.85 254.57 54.02 254.14 56.37 263.97 58.2"/><ellipse class="g" cx="269.28" cy="49.55" rx="2.38" ry="2.4"/><polygon class="f" points="262.86 55.56 254.14 56.37 262.88 58 262.86 55.56"/><ellipse class="g" cx="264.18" cy="57.02" rx="2.38" ry="2.4"/><path class="h" d="M229.77,38.64l-.54-.1h0l-1.38,7.56h0l.55.11a.63.63,0,0,0,.73-.51l1.14-6.33A.62.62,0,0,0,229.77,38.64Z" transform="translate(25.86 12.62)"/><path class="g" d="M228.84,37.1l-.54-.1h0l-1.85,10.22h0l.54.1a.63.63,0,0,0,.73-.51l1.63-9a.63.63,0,0,0-.5-.73Z" transform="translate(25.86 12.62)"/><path class="i" d="M256.12,33.33,235.63,22.62a.75.75,0,0,0-1,.32l-3.19,6.21a.76.76,0,0,0,.32,1l20.5,10.71a.75.75,0,0,0,1-.33l3.18-6.2A.76.76,0,0,0,256.12,33.33Z" transform="translate(25.86 12.62)"/><path class="g" d="M258.15,34.7l-1.49-.78h0l-3,5.84h0l.87.45a.69.69,0,0,0,.94-.3h0l2.68-5.21h0Z" transform="translate(25.86 12.62)"/><path class="j" d="M232.6,23a40.07,40.07,0,0,0,2.5-4.6,2.15,2.15,0,0,1,1.59.17l21.25,11.1a1.34,1.34,0,0,0-.33.62c-.11.54-.21,1.08-.29,1.63a4.61,4.61,0,0,1-.58,1,1.27,1.27,0,0,0-.22,1.24c-.42.84-.86,1.67-1.27,2.52a3.42,3.42,0,0,1-2.06-.36l-7.77-4.06a3.42,3.42,0,0,0-2.64-.22l-.46.14a3.38,3.38,0,0,1-2.64-.22L232,28l.41-.79.12-.24,0-.07,0,0a1.32,1.32,0,0,0-.07-1.79,1,1,0,0,0-.34-.23l.41-.79A1.22,1.22,0,0,0,232.6,23Z" transform="translate(25.86 12.62)"/><path class="k" d="M263.65,33.41l-7.42,2.38a3.46,3.46,0,0,1-2.64-.22l-7.77-4.06a3.38,3.38,0,0,0-2.64-.22l-.46.14a3.44,3.44,0,0,1-2.63-.22l-7.83-4.09a2.23,2.23,0,0,1-.94-3l2.78-5.41a2.19,2.19,0,0,1,3-.95l26.72,14a.92.92,0,0,1,.39,1.24A.91.91,0,0,1,263.65,33.41Z" transform="translate(25.86 12.62)"/><path class="j" d="M260.06,29.77,249,24a.93.93,0,0,0-1.27.41l-.94,1.81a1,1,0,0,0,.41,1.28l11.07,5.79a.94.94,0,0,0,1.27-.41l.93-1.81A1,1,0,0,0,260.06,29.77Z" transform="translate(25.86 12.62)"/><path class="j" d="M244.71,21.75,238,18.22a.94.94,0,0,0-1.27.4l-.93,1.82a1,1,0,0,0,.4,1.28l6.75,3.53a.94.94,0,0,0,1.27-.41l.93-1.81A1,1,0,0,0,244.71,21.75Z" transform="translate(25.86 12.62)"/><path class="n" d="M76,161.84a3.5,3.5,0,0,0,.4-3c-1-2.72.49-4.57,2.83-6.61a58.53,58.53,0,0,0,9-10c1.93-2.66,2.9-2.49,3.66-.38A37.72,37.72,0,0,0,95.07,149c-.33-3.73-.61-7.45-1-11.17a5,5,0,0,1,1-3.72,57.71,57.71,0,0,0,6.32-10.3c.51-1.18,1.14-1.24,1.88-.27,7.27,9.52,13,19.66,12.62,32.22-.11,3.16-.5,6.32-.8,9.47-.2,2.14-1.86,3.22-3.32,4.41-3.41,2.76-6.84,5.49-10.71,8.58,3.3-.06,5.9-1.06,8.57-1.59.68-.14,1.48-.71,2-.11s-.18,1.33-.47,2c-1.32,3-2.87,5.8-4.35,8.69-1.77,3.45-4.55,5.74-7.67,7.79a63.93,63.93,0,0,0-8.49,6.54l6.71-1.09a131.71,131.71,0,0,1-9.06,10.27c-2,2.15-4,4.23-6,6.34-1.12-.34-.92-1.39-1-2.18A34.6,34.6,0,0,1,82.38,200c1.91-6.82,5-13.17,8.08-19.47a98.6,98.6,0,0,0,9.29-31.79c.55-4.41,1.3-8.79,1.63-12.37-.79,6-1.65,12.9-2.8,19.73-1.66,10-5.55,19.11-9.87,28.14-3.52,7.35-7,14.76-7.71,23.07a32.64,32.64,0,0,0,.19,7.84c.17,1.08.77,2.24-.39,3.29l-1,.29c-.56-.08-1.15.17-1.7-.09-4.43-2.29-8.18-5.33-10.44-9.94a5.15,5.15,0,0,0-1-1.3,6.36,6.36,0,0,1-1-1.93,9.8,9.8,0,0,0-.81-2.47c-.84-2-.52-2.48,1.64-2.82a34.25,34.25,0,0,1,4.8-.2c-2.44-1.43-4.7-2.94-7-4.36A4.2,4.2,0,0,1,62,192c-1.09-10.92,2-20.69,8.1-29.6.71-1,1.37-2.48,3.13-1.8.3,1.1-.09,2.55,1.49,3,1.32,1,1.43,2.75,2.49,3.72C76.59,165.63,76.78,163.62,76,161.84Z" transform="translate(25.86 12.62)"/><path class="o" d="M78.65,218.27c.44.09.94,0,1.22.51C69.34,228.53,56.68,233,42.1,234.34L45.55,231l-.15-.28a53.26,53.26,0,0,0-5.21,2.22,13.5,13.5,0,0,1-7.73,1.4c-8.86-.59-17-3.4-25.22-7.48L12,224.41c-2.26-.52-4.35.07-6.45.41A7.88,7.88,0,0,1,1,224.24a46,46,0,0,0-16.17-4.12,26.82,26.82,0,0,0-10.56,1.59c-.55-7.1,1.66-13.12,5.65-18.62.59-.81,1.32-.71,2.09-.74l8.59-.31-7.72-2.23a36.82,36.82,0,0,1,15-8.8C-.77,190.76.23,188.89,2,190c4.18-1.21,7.71.05,10.86,2.87a6.26,6.26,0,0,0,2.59,1.35L12,189.61a29.11,29.11,0,0,1,7.6,1.34c2.52-.74,4.18.85,5.9,2.25l6.62,3.52a2.7,2.7,0,0,1,2.56,1.4,18.3,18.3,0,0,0,3.18,3.51,10.32,10.32,0,0,1,2.18,2.94c8.24,8.89,18.43,13.51,30.4,14.39C73.25,219.17,75.91,218.41,78.65,218.27Z" transform="translate(25.86 12.62)"/><path class="p" d="M37.53,202.11c-1.58-.59-2.36-2-3.26-3.27a8.79,8.79,0,0,0-2.14-2.12c-.44-2.05-2-3.5-3-5.21a54.18,54.18,0,0,1-7.95-22.35c.46-1.07,1.47-1.36,2.44-1.69,7.54-2.53,15.14-4.88,22.71-7.29a7.7,7.7,0,0,1,5.29.33c1.06,1.1,1.12,2.58,1.34,4a177,177,0,0,0,4.9,23.39c.8,2.71,1.29,5.54,2.69,8.06a2.34,2.34,0,0,1,.29,1.6c-.42,1.06-1.41,1.07-2.31,1.31a87.64,87.64,0,0,0-13.3,4.36,4.14,4.14,0,0,1-2.34.45,12.63,12.63,0,0,0-3.35-.33C38.85,203,38.39,202.2,37.53,202.11Z" transform="translate(25.86 12.62)"/><path class="q" d="M51.4,160.59c-.1.12-.24.36-.3.35-4.17-1.29-7.67,1.22-11.37,2.22-6.26,1.71-12.36,4-18.52,6-.88-5.74-.63-11.48-.23-17.6l10.58,6.1.22-.3c-3-2.88-5.94-5.79-9-8.6a3.61,3.61,0,0,1-1.29-3.5c.83-6.76,1.52-13.54,2.3-20.31a3.2,3.2,0,0,1,.74-2.41l6.36,6.89c1.08-.87,0-1.5-.31-2.13-.87-2-.8-2.31,1.27-3.12,1.18-.46,2.39-.8,3.58-1.21,4.13-1.44,4.82-1.23,7.86,2.33,1.82,3.8,2.64,7.94,3.75,12,1.83,6.64,3.24,13.38,4.53,20.14C51.78,158.44,52.27,159.58,51.4,160.59Z" transform="translate(25.86 12.62)"/><path class="q" d="M55,120.26l1.79,4.36.29-.06c-.53-3.36-1.06-6.73-1.66-10.58a63.07,63.07,0,0,1,11.08,12.45,76.08,76.08,0,0,1,9.94,20.44c.68,2.19.72,4.15-.73,6a6.78,6.78,0,0,0-4.59.21c-3.86,1.33-7.81,2.37-11.67,3.67-2.08.69-4.26,1.16-5.64,3.15a.9.9,0,0,1-1.43.17c-1.4-3.31-1.62-6.91-2.41-10.36-1.94-8.51-3.86-17-6.92-25.21a1.87,1.87,0,0,1,0-2c.34-.16.83.05,1.07-.32,1.88-3,5.15-3,8-3.82A2.08,2.08,0,0,1,55,120.26Z" transform="translate(25.86 12.62)"/><path class="r" d="M55,120.26a2.25,2.25,0,0,0-3.12-1.16c-1.44.56-3,.91-4.46,1.34-1.81.52-3,1.57-2.7,3.72-1-.37-.93-1.24-1.42-1.71A1.9,1.9,0,0,1,41.81,121c-1.82-5.7-4.33-11.11-6.67-16.6,0,0,.11-.1,0,0a13.77,13.77,0,0,0,1.55,3.78c2.37,4.4,3.61,9.25,5.54,13.82a4.49,4.49,0,0,1,.47,3.43c-2.42-4-5.56-2.21-8.73-1.21-3.91,1.22-3.94,1.11-2.17,4.77.19.41.34.84.55,1.35-1,.21-1.18-.4-1.46-.94.5-1.17-.33-2-.87-2.79-4.84-6.87-5.9-14.3-4.1-22.49,1.05-4.74,1.16-9.69,1.79-15.33,4.83,9.46,13.19,14,20.75,19.39,2.11,1.51,3.85,3.06,4.49,5.78C53.45,116.11,54.62,118.06,55,120.26Z" transform="translate(25.86 12.62)"/><path class="s" d="M52.72,159.93c2.43-4,6.93-3.8,10.57-5.27,3.1-1.25,6.41-1.95,9.59-3,1.36-.44,2.3-.23,2.8,1.19-.82,2.57-1.65,5.14-2.47,7.71-1.18,0-1.71.93-2.3,1.77a44.58,44.58,0,0,0-8.4,29.5.76.76,0,0,1-.08.21c-.46,1,.94,2.63-.75,2.95-1.36.25-1.56-1.42-2.18-2.34-.09-.12-.14-.27-.22-.4-2.1-5.16-3.13-10.62-4.32-16-1-4.63-1.72-9.32-2.59-14C52.22,161.49,51.72,160.57,52.72,159.93Z" transform="translate(25.86 12.62)"/><path class="t" d="M81.1,218.16c-2.21-9.21,0-17.82,3.59-26.19,2.61-6,5.43-12,8.08-18,4.53-10.31,6.14-21.31,7.52-32.37.35-2.82.77-5.64,1.17-8.56.92.52.47,1.21.42,1.73q-1.09,10.78-2.86,21.48a88.62,88.62,0,0,1-8.08,24.57,118.56,118.56,0,0,0-7.6,17.95c-1.8,6-2.7,12.07-1.11,18.29C82,217.56,82.27,218.6,81.1,218.16Z" transform="translate(25.86 12.62)"/><path class="u" d="M76,161.84c.49-.21.91-.27,1,.43.4,2.37.8,4.74,1,7.2-1.21-1.93-3-3.44-3.28-5.88Z" transform="translate(25.86 12.62)"/><path class="v" d="M44.85,203.07c.11-1.59,1.6-1.36,2.47-1.67,3.35-1.2,6.8-2.11,10.17-3.26,1-.36,2.21.24,3.16-.52,1.2.24,1.44,1.35,1.92,2.22,1.38,2.46,2.89,4.84,4.27,7.3.16.27.37.34.17.09,0,0,.08-.12.12-.19,1.85,2.55,3.4,5.33,5.83,7.44a37,37,0,0,0,5.69,3.79c-4.16,2.36-8.61,1.61-12.91.92A43.89,43.89,0,0,1,39.6,205.14c.07-.45-.45-1.16.53-1.23a4.58,4.58,0,0,0,4.27.07,15.43,15.43,0,0,1,3,.09C46.53,203.79,45.3,204.43,44.85,203.07Z" transform="translate(25.86 12.62)"/><path class="w" d="M67.13,207l.51,1.76a68.46,68.46,0,0,1-7-11.18c-3.78-8-5.32-16.6-7-25.18-.78-3.95-1.5-7.9-2.25-11.85a274.78,274.78,0,0,0-8-33.62,12.7,12.7,0,0,0-.68-1.51C40.14,118.28,37.83,111,34.66,104c3.76,5.73,5.92,12.2,8.61,18.42,1.68,5.85,3.52,11.65,5,17.55,1.65,6.6,3,13.28,4.45,19.93a189.83,189.83,0,0,0,4.55,23.63c.73,2.88,1.18,5.88,2.69,8.52a6.27,6.27,0,0,0,1.89,3.43A6.9,6.9,0,0,1,64,199.37c.33,2.1,1.53,3.78,2.13,5.72Z" transform="translate(25.86 12.62)"/><path class="v" d="M66.14,205.09c-2.17-4.28-4.92-8.29-6.18-13,.59.8.72,1.89,1.57,2.53,1.51-.52-.57-2.29,1-2.76a3.74,3.74,0,0,0,2.23,3.3c2.78,1.64,5.48,3.43,8.73,5.49-2.66.1-4.79.28-6.91.22-1.75,0-2.09.49-1.24,2A15.83,15.83,0,0,1,66.14,205.09Z" transform="translate(25.86 12.62)"/><path class="x" d="M39.91,204c-.1.39-.2.79-.31,1.18l-2.07-3c1-.4,1.68.06,2.09,1A.61.61,0,0,1,39.91,204Z" transform="translate(25.86 12.62)"/><path class="y" d="M39.91,204c-.1-.28-.2-.57-.29-.85,1-1.56,2.08-.12,3.13,0,.68.23,1.69,0,1.72,1.16C42.59,205.76,41.08,205.66,39.91,204Z" transform="translate(25.86 12.62)"/><path class="z" d="M44.47,204.26l-1.72-1.16c.69-.4,1.4.06,2.1,0l4.3.93C47.3,204.59,45.93,204.92,44.47,204.26Z" transform="translate(25.86 12.62)"/><path class="o" d="M368.75,221.92c-.28.05-.6,0-.78.32,6.71,6.21,14.78,9,24.06,9.91L389.84,230l.09-.18a34.8,34.8,0,0,1,3.32,1.41,8.59,8.59,0,0,0,4.93.9,42.09,42.09,0,0,0,16.07-4.77l-3-1.56a10.47,10.47,0,0,1,4.11.27,5,5,0,0,0,2.91-.37,29.49,29.49,0,0,1,10.3-2.63,17.4,17.4,0,0,1,6.73,1,17.27,17.27,0,0,0-3.6-11.85c-.37-.52-.84-.46-1.33-.48l-5.47-.2,4.92-1.42a23.54,23.54,0,0,0-9.55-5.6c-.9-.16-1.54-1.35-2.65-.67a6.94,6.94,0,0,0-6.92,1.82,3.93,3.93,0,0,1-1.65.86l2.18-2.91a19.06,19.06,0,0,0-4.85.86c-1.6-.47-2.66.54-3.76,1.43l-4.22,2.25a1.68,1.68,0,0,0-1.62.89,12,12,0,0,1-2,2.23,6.75,6.75,0,0,0-1.39,1.88A28.3,28.3,0,0,1,374,222.36,43.06,43.06,0,0,1,368.75,221.92Z" transform="translate(25.86 12.62)"/><path class="p" d="M394.94,211.62c1-.37,1.51-1.29,2.08-2.09a5.76,5.76,0,0,1,1.36-1.34c.29-1.31,1.25-2.24,1.9-3.32a34.42,34.42,0,0,0,5.06-14.24c-.29-.69-.93-.87-1.55-1.08-4.8-1.61-9.64-3.11-14.47-4.65a4.94,4.94,0,0,0-3.37.21,4.23,4.23,0,0,0-.85,2.53,111.1,111.1,0,0,1-3.13,14.9,23.79,23.79,0,0,1-1.71,5.13,1.59,1.59,0,0,0-.18,1c.27.67.89.68,1.47.83a56.3,56.3,0,0,1,8.47,2.78,2.59,2.59,0,0,0,1.5.28,8.42,8.42,0,0,1,2.13-.21C394.11,212.18,394.4,211.68,394.94,211.62Z" transform="translate(25.86 12.62)"/><path class="q" d="M386.11,185.17c.07.07.15.23.19.22,2.66-.82,4.89.78,7.25,1.42,4,1.08,7.87,2.53,11.79,3.82a51.76,51.76,0,0,0,.15-11.22l-6.74,3.89-.14-.19c1.9-1.83,3.78-3.69,5.73-5.48a2.3,2.3,0,0,0,.82-2.23c-.53-4.31-1-8.63-1.46-12.94a2.08,2.08,0,0,0-.48-1.54l-4.05,4.4c-.69-.56,0-1,.2-1.36.55-1.29.51-1.47-.81-2-.75-.3-1.53-.51-2.29-.77-2.63-.92-3.06-.78-5,1.49a44.91,44.91,0,0,0-2.39,7.62c-1.16,4.22-2.06,8.52-2.89,12.82C385.87,183.8,385.56,184.52,386.11,185.17Z" transform="translate(25.86 12.62)"/><path class="q" d="M383.84,159.47l-1.15,2.78-.18,0,1.06-6.75a40.46,40.46,0,0,0-7.06,7.93,48.7,48.7,0,0,0-6.33,13,3.85,3.85,0,0,0,.46,3.82,4.41,4.41,0,0,1,2.93.13c2.45.85,5,1.51,7.43,2.34,1.32.44,2.72.74,3.59,2a.58.58,0,0,0,.92.11c.89-2.11,1-4.4,1.53-6.61a123.29,123.29,0,0,1,4.41-16,1.22,1.22,0,0,0,0-1.29c-.22-.1-.53,0-.68-.2-1.2-1.88-3.28-1.9-5.1-2.43A1.31,1.31,0,0,0,383.84,159.47Z" transform="translate(25.86 12.62)"/><path class="r" d="M383.84,159.47a1.42,1.42,0,0,1,2-.73c.92.35,1.89.57,2.84.85a2,2,0,0,1,1.73,2.37c.62-.24.59-.8.9-1.09a1.21,1.21,0,0,0,.93-.9c1.16-3.63,2.76-7.08,4.25-10.57,0,0-.07-.07,0,0a8.35,8.35,0,0,1-1,2.4c-1.51,2.81-2.29,5.9-3.52,8.81a2.87,2.87,0,0,0-.31,2.19c1.55-2.56,3.55-1.41,5.57-.78,2.49.78,2.51.71,1.38,3-.12.26-.21.54-.35.87.61.13.75-.26.93-.6-.32-.75.21-1.3.55-1.78a17.18,17.18,0,0,0,2.62-14.33,93.61,93.61,0,0,1-1.14-9.77c-3.08,6-8.41,8.91-13.22,12.35a6.21,6.21,0,0,0-2.86,3.69C384.8,156.83,384.06,158.07,383.84,159.47Z" transform="translate(25.86 12.62)"/><path class="s" d="M385.27,184.75c-1.55-2.53-4.42-2.42-6.74-3.36-2-.8-4.08-1.25-6.11-1.9-.86-.28-1.46-.14-1.78.76.53,1.64,1.05,3.28,1.58,4.91.75,0,1.08.6,1.46,1.13A28.33,28.33,0,0,1,379,205.08s0,.1.05.14c.3.61-.6,1.67.48,1.87.87.17,1-.9,1.39-1.48.05-.08.09-.18.14-.26a62.06,62.06,0,0,0,2.75-10.21c.65-2.95,1.1-5.94,1.65-8.91C385.59,185.74,385.91,185.15,385.27,184.75Z" transform="translate(25.86 12.62)"/><path class="u" d="M370.45,186c-.31-.13-.58-.17-.65.28-.25,1.51-.51,3-.62,4.58.76-1.22,1.94-2.19,2.09-3.74C371,186.71,370.72,186.33,370.45,186Z" transform="translate(25.86 12.62)"/><path class="v" d="M390.28,212.23c-.07-1-1-.87-1.57-1.07-2.13-.76-4.33-1.34-6.48-2.07-.67-.23-1.41.15-2-.33-.77.15-.92.86-1.23,1.41-.87,1.57-1.84,3.09-2.72,4.65-.1.17-.23.22-.1.06,0,0-.05-.08-.08-.12a25.83,25.83,0,0,1-3.72,4.74,23.79,23.79,0,0,1-3.62,2.42c2.65,1.5,5.48,1,8.22.58a27.92,27.92,0,0,0,16.65-8.95c0-.29.3-.74-.33-.78a2.94,2.94,0,0,1-2.72,0,9.15,9.15,0,0,0-1.89.06C389.21,212.69,390,213.1,390.28,212.23Z" transform="translate(25.86 12.62)"/><path class="w" d="M376.09,214.76l-.32,1.12a44.68,44.68,0,0,0,4.45-7.12c2.41-5.09,3.39-10.58,4.46-16,.49-2.52.95-5,1.43-7.55a172.83,172.83,0,0,1,5.11-21.42,8.2,8.2,0,0,1,.42-1c1.64-4.58,3.12-9.22,5.13-13.66-2.39,3.65-3.77,7.78-5.48,11.74-1.07,3.72-2.24,7.42-3.18,11.18-1.06,4.2-1.9,8.46-2.84,12.7a120.38,120.38,0,0,1-2.9,15.05,21.18,21.18,0,0,1-1.71,5.43,4,4,0,0,1-1.21,2.18,4.46,4.46,0,0,0-1.38,2.46c-.2,1.34-1,2.41-1.35,3.65Z" transform="translate(25.86 12.62)"/><path class="v" d="M376.72,213.52c1.38-2.73,3.14-5.28,3.94-8.29-.38.51-.47,1.2-1,1.61-1-.33.36-1.46-.63-1.76a2.39,2.39,0,0,1-1.42,2.11c-1.77,1-3.49,2.18-5.56,3.49,1.69.06,3.05.18,4.4.15,1.12,0,1.33.3.79,1.27A9.6,9.6,0,0,0,376.72,213.52Z" transform="translate(25.86 12.62)"/><path class="x" d="M393.43,212.8c.07.25.13.5.19.75l1.32-1.93c-.66-.25-1.06,0-1.32.64A.38.38,0,0,0,393.43,212.8Z" transform="translate(25.86 12.62)"/><path class="y" d="M393.43,212.8l.19-.54c-.66-1-1.33-.08-2,0-.43.15-1.07,0-1.1.74C391.72,213.94,392.69,213.88,393.43,212.8Z" transform="translate(25.86 12.62)"/><path class="z" d="M390.52,213l1.1-.74c-.44-.25-.89,0-1.34,0l-2.73.6A3.93,3.93,0,0,0,390.52,213Z" transform="translate(25.86 12.62)"/><rect class="aa" x="110.2" y="89.17" width="89.84" height="147.13"/><rect class="ab" x="108.64" y="233.93" width="92.97" height="3.15" rx="0.61"/><rect class="ab" x="108.64" y="86.8" width="92.97" height="3.15" rx="0.61"/><rect class="ab" x="108.64" y="195.28" width="92.97" height="3.15" rx="0.61"/><rect class="ab" x="108.64" y="141.04" width="92.97" height="3.15" rx="0.61"/><rect class="ac" x="298.72" y="88.37" width="89.84" height="147.13"/><rect class="ad" x="297.16" y="233.14" width="92.97" height="3.15" rx="0.61"/><rect class="ad" x="297.16" y="86" width="92.97" height="3.15" rx="0.61"/><rect class="ad" x="297.16" y="194.49" width="92.97" height="3.15" rx="0.61"/><rect class="ad" x="297.16" y="140.25" width="92.97" height="3.15" rx="0.61"/><path class="n" d="M370.45,186a2.27,2.27,0,0,1-.26-1.88c.62-1.73-.31-2.91-1.79-4.21a37.15,37.15,0,0,1-5.75-6.39c-1.22-1.7-1.84-1.59-2.33-.25a24.19,24.19,0,0,1-2,4.56c.21-2.37.39-4.75.64-7.12a3.22,3.22,0,0,0-.64-2.37,36.66,36.66,0,0,1-4-6.56c-.32-.75-.73-.79-1.2-.17-4.63,6.06-8.3,12.52-8,20.52.07,2,.32,4,.51,6,.13,1.36,1.19,2.05,2.12,2.81,2.17,1.76,4.36,3.5,6.82,5.47a28.69,28.69,0,0,1-5.46-1c-.43-.08-.94-.45-1.25-.07s.12.85.3,1.26c.85,1.88,1.83,3.69,2.77,5.53a13.33,13.33,0,0,0,4.89,5,39.69,39.69,0,0,1,5.41,4.17l-4.28-.7a81.79,81.79,0,0,0,5.78,6.54c1.25,1.37,2.56,2.7,3.84,4,.71-.22.58-.89.66-1.39a22.06,22.06,0,0,0-.76-9.45,71.12,71.12,0,0,0-5.15-12.4,63.21,63.21,0,0,1-5.92-20.25c-.35-2.81-.82-5.6-1-7.88.5,3.84,1.05,8.21,1.78,12.57,1.06,6.35,3.54,12.17,6.29,17.92,2.24,4.68,4.44,9.41,4.91,14.7a20.82,20.82,0,0,1-.12,5c-.11.69-.49,1.43.25,2.1l.66.19c.35-.06.73.1,1.08-.06a14.27,14.27,0,0,0,6.65-6.33,3.1,3.1,0,0,1,.65-.83,4.15,4.15,0,0,0,.65-1.23,5.77,5.77,0,0,1,.51-1.57c.53-1.25.33-1.59-1-1.8a20.62,20.62,0,0,0-3.07-.13c1.56-.91,3-1.87,4.48-2.78a2.67,2.67,0,0,0,1.42-2.33,27.62,27.62,0,0,0-5.16-18.86c-.46-.67-.87-1.58-2-1.15-.2.7,0,1.63-1,1.92-.85.61-.92,1.75-1.59,2.37C370.06,188.38,369.94,187.1,370.45,186Z" transform="translate(25.86 12.62)"/><path class="t" d="M367.19,221.84c1.41-5.86,0-11.35-2.29-16.68-1.66-3.85-3.46-7.64-5.14-11.48-2.89-6.57-3.92-13.58-4.8-20.62-.22-1.8-.49-3.6-.74-5.46-.59.34-.3.78-.27,1.1q.69,6.88,1.82,13.69A56.41,56.41,0,0,0,360.92,198a75.17,75.17,0,0,1,4.84,11.44c1.15,3.82,1.72,7.69.71,11.65C366.62,221.46,366.45,222.13,367.19,221.84Z" transform="translate(25.86 12.62)"/><rect class="ae" x="245.35" y="27.34" width="8.07" height="211.19"/><rect class="af" x="70.89" y="235.13" width="356.99" height="8.16"/></svg>